<?xml version="1.0" encoding="utf-8"?>
<!-- Generator: Adobe Illustrator 24.0.0, SVG Export Plug-In . SVG Version: 6.00 Build 0)  -->
<svg version="1.1" id="Layer_1" xmlns="http://www.w3.org/2000/svg" xmlns:xlink="http://www.w3.org/1999/xlink" x="0px" y="0px"
	 viewBox="0 0 256 256" enable-background="new 0 0 256 256" xml:space="preserve">
<g>
</g>
<g>
	<path fill="#72C2E9" d="M96.224,39.473v47.901c0,2.761-2.239,5-5,5h-72.85c-2.761,0-5-2.239-5-5V39.473
		c0-2.761,2.239-5.001,5-5.001h72.85C93.986,34.472,96.224,36.712,96.224,39.473z"/>
	<path fill="#FC5D3D" d="M236.827,55.573l-35.151,35.136l-35.13-35.13c-7.729-7.729-7.727-20.262,0.006-27.988l0,0
		c7.728-7.722,20.252-7.72,27.977,0.005l7.148,7.147l7.164-7.164c7.727-7.727,20.256-7.727,27.983,0l0.008,0.008
		C244.559,35.315,244.557,47.846,236.827,55.573z"/>
	<path fill="#FFCBC3" d="M206.787,73.955c-0.976-0.977-0.976-2.56,0-3.536l22.45-22.44c5.651-5.643,1.714-15.46-6.406-15.46
		c-1.381,0-2.5-1.119-2.5-2.5s1.119-2.5,2.5-2.5c12.736,0,18.629,15.318,9.94,23.997l-22.449,22.44
		C209.345,74.932,207.763,74.932,206.787,73.955z"/>
	<path fill="#C5E5FE" d="M88.545,86.499H32.17c-1.381,0-2.5-1.119-2.5-2.5s1.119-2.5,2.5-2.5h53.875V42.374
		c0-1.381,1.119-2.5,2.5-2.5s2.5,1.119,2.5,2.5v41.625C91.045,85.38,89.926,86.499,88.545,86.499z M22.17,86.499h-0.279
		c-1.381,0-2.5-1.119-2.5-2.5s1.119-2.5,2.5-2.5h0.279c1.381,0,2.5,1.119,2.5,2.5S23.551,86.499,22.17,86.499z"/>
	<path fill="#FB5E3D" d="M31.838,22.469v12.003h9.181V24.348h27.56v10.124h9.181V22.469c0-3.458-2.804-6.262-6.262-6.262H38.1
		C34.642,16.207,31.838,19.011,31.838,22.469z"/>
	<path fill="#EDC21D" d="M148.77,119.959c-1.43,4.08-4.02,7.63-7.41,10.23c-3.69,2.83-8.32,4.52-13.36,4.52
		c-4.81,0-9.31-1.56-12.97-4.25c-3.55-2.57-6.31-6.21-7.8-10.5c-1.64-4.67-1.64-9.85,0-14.5c2.99-8.6,11.16-14.75,20.77-14.75
		s17.78,6.15,20.77,14.75C150.41,110.109,150.41,115.289,148.77,119.959z"/>
	<path fill="#7D7B79" d="M164.29,219.29H92.21l22.82-88.831c3.66,2.69,8.16,4.25,12.97,4.25c5.04,0,9.67-1.69,13.36-4.52
		L164.29,219.29z"/>
	<path fill="#EFEFEF" d="M151.484,212.791h-30.619c-1.381,0-2.5-1.119-2.5-2.5s1.119-2.5,2.5-2.5h27.494l-14.535-64.643
		c-0.303-1.348,0.543-2.685,1.891-2.988c1.348-0.298,2.685,0.544,2.987,1.891l15.22,67.691
		C154.274,211.304,153.086,212.791,151.484,212.791z M110.866,212.791h-5.852c-1.381,0-2.5-1.119-2.5-2.5s1.119-2.5,2.5-2.5h5.852
		c1.381,0,2.5,1.119,2.5,2.5S112.247,212.791,110.866,212.791z"/>
	<path fill="#7D7B79" d="M107.23,119.959H16.87c-4,0-7.25-3.25-7.25-7.25c0-2.01,0.81-3.82,2.12-5.13c1.32-1.31,3.13-2.12,5.13-2.12
		h90.36C105.59,110.109,105.59,115.289,107.23,119.959z"/>
	<path fill="#7D7B79" d="M246.38,112.709c0,4-3.25,7.25-7.25,7.25h-90.36c1.64-4.67,1.64-9.85,0-14.5h90.36
		C243.13,105.459,246.38,108.699,246.38,112.709z"/>
	<path fill="#EDC21D" d="M183.5,229.291v10.5h-111v-10.5c0-5.52,4.48-10.001,10-10.001h91
		C179.02,219.29,183.5,223.771,183.5,229.291z"/>
	<path d="M164.78,25.818c-8.745,8.727-8.696,22.834,0,31.53l35.13,35.13c0.967,0.968,2.551,0.98,3.53,0l35.15-35.14
		c8.733-8.712,8.706-22.783,0.04-31.49l-0.04-0.04c-3.72-3.729-8.66-6.02-13.9-6.45c-1.36-0.109-2.58,0.931-2.69,2.28
		c-0.12,1.38,0.91,2.59,2.28,2.7c4.06,0.34,7.89,2.12,10.77,5.01c0.01,0,0.01,0,0.01,0v0.01c6.743,6.745,6.774,17.666,0,24.44
		l-33.38,33.37l-33.37-33.36c-6.724-6.743-6.785-17.675,0.01-24.45c6.685-6.685,17.626-6.814,24.44,0l7.15,7.15
		c0.95,0.94,2.59,0.94,3.53,0l5.19-5.19c0.97-0.97,0.97-2.56,0-3.529c-0.95-0.94-2.59-0.94-3.54,0l-3.41,3.42l-5.38-5.38
		C187.576,17.105,173.485,17.135,164.78,25.818z"/>
	<path d="M215.76,25.789h0.01c1.236-0.578,1.814-2.028,1.25-3.3c-0.55-1.221-2.07-1.811-3.29-1.261c-0.01,0-0.01,0-0.02,0
		c-1.248,0.553-1.823,2.029-1.26,3.301C213.031,25.803,214.517,26.351,215.76,25.789z"/>
	<path d="M91.57,89.849c-1.369,0.186-2.328,1.438-2.14,2.82c0.18,1.34,1.46,2.31,2.82,2.14c0-0.01,0-0.01,0-0.01
		c3.69-0.5,6.47-3.69,6.47-7.42v-47.91c0-4.13-3.36-7.49-7.49-7.5H80.26v-9.5c0-4.83-3.93-8.76-8.76-8.76H38.1
		c-4.83,0-8.76,3.93-8.76,8.76v9.5H18.38c-4.14,0.01-7.5,3.37-7.51,7.5v47.91c0.01,4.13,3.37,7.49,7.51,7.5h53.53
		c1.38,0,2.5-1.13,2.5-2.51c0-1.37-1.12-2.5-2.5-2.5H18.38c-1.38,0-2.5-1.12-2.51-2.49v-47.91c0.01-1.37,1.13-2.49,2.51-2.5
		c68.646,0,44.813,0,72.85,0c1.37,0.01,2.49,1.13,2.49,2.5v47.91C93.73,88.619,92.8,89.679,91.57,89.849z M66.08,31.969H43.52v-5.12
		h22.56V31.969z M71.08,31.969v-7.62c0-1.389-1.134-2.5-2.5-2.5H41.02c-1.372,0-2.5,1.117-2.5,2.5v7.62h-4.18v-9.5
		c0-2.07,1.69-3.76,3.76-3.76h33.4c2.07,0,3.76,1.689,3.76,3.76v9.5H71.08z"/>
	<path d="M79.41,92.369c0,1.38,1.12,2.51,2.5,2.51c1.38,0,2.5-1.13,2.5-2.51c0-1.37-1.12-2.5-2.5-2.5
		C80.53,89.869,79.41,90.999,79.41,92.369z"/>
	<path d="M134.801,104.781l-9.316,10.443l-4.299-4.74c-0.927-1.021-2.507-1.102-3.531-0.172c-1.022,0.928-1.1,2.509-0.172,3.531
		l6.167,6.799c0.996,1.099,2.728,1.094,3.717-0.016l11.167-12.518c0.919-1.03,0.829-2.61-0.202-3.529
		C137.301,103.66,135.72,103.75,134.801,104.781z"/>
	<path d="M101.15,186.999c1.14,0,2.13-0.771,2.42-1.88c0.341-1.363-0.486-2.716-1.8-3.04c-1.32-0.34-2.71,0.489-3.04,1.8
		C98.31,185.459,99.532,186.999,101.15,186.999z"/>
	<path d="M239.13,102.959h-88.658c-3.846-8.891-12.659-14.75-22.472-14.75c-9.816,0-18.631,5.863-22.472,14.75H16.87
		c-2.596,0-5.043,1.011-6.898,2.853c-1.839,1.84-2.852,4.289-2.852,6.897c0,5.376,4.374,9.75,9.75,9.75h88.654
		c1.504,3.484,3.782,6.536,6.68,8.96l-10.994,42.769c-0.338,1.374,0.472,2.696,1.8,3.051c1.33,0.34,2.71-0.49,3.05-1.801v-0.01
		l10.54-41.04c3.336,1.765,7.423,2.82,11.4,2.82c4.189,0,8.396-1.146,11.81-3.03l21.25,82.61H95.43l5.65-21.98
		c0.345-1.314-0.441-2.695-1.8-3.05c-1.32-0.34-2.71,0.49-3.04,1.8l-5.967,23.231H82.5c-6.893,0-12.5,5.608-12.5,12.501v10.5
		c0,1.381,1.119,2.5,2.5,2.5h111c1.381,0,2.5-1.119,2.5-2.5v-10.5c0-6.893-5.607-12.501-12.5-12.501h-7.274l-22.052-85.686
		c2.714-2.389,4.86-5.33,6.299-8.645h88.656c5.376,0,9.75-4.374,9.75-9.75S244.506,102.959,239.13,102.959z M181,229.291v8H75v-8
		c0-4.136,3.364-7.501,7.5-7.501h91C177.636,221.79,181,225.155,181,229.291z M16.87,117.459c-2.619,0-4.75-2.131-4.75-4.75
		c0-1.272,0.493-2.467,1.382-3.355c0.905-0.899,2.102-1.395,3.368-1.395h87.09c-0.636,3.21-0.594,6.495,0.002,9.5H16.87z
		 M128,132.209c-8.038,0-15.63-5.073-18.411-13.078c-1.458-4.15-1.458-8.71,0.002-12.851c2.718-7.818,10.116-13.071,18.409-13.071
		c8.293,0,15.691,5.253,18.413,13.082c1.457,4.13,1.456,8.689-0.001,12.84c0,0,0,0.001,0,0.001
		C143.758,126.702,136.583,132.209,128,132.209z M239.13,117.459h-87.092c0.625-3.16,0.607-6.442,0.002-9.5h87.09
		c2.619,0,4.75,2.131,4.75,4.75S241.749,117.459,239.13,117.459z"/>
</g>
</svg>
