<?xml version="1.0" encoding="iso-8859-1"?>
<!-- Generator: Adobe Illustrator 19.0.0, SVG Export Plug-In . SVG Version: 6.00 Build 0)  -->
<svg xmlns="http://www.w3.org/2000/svg" xmlns:xlink="http://www.w3.org/1999/xlink" version="1.1" id="Layer_1" x="0px" y="0px" viewBox="0 0 512.001 512.001" style="enable-background:new 0 0 512.001 512.001;" xml:space="preserve">
<circle style="fill:#EE534F;" cx="81.048" cy="108.305" r="73.538"/>
<path style="opacity:0.1;enable-background:new    ;" d="M37.54,108.308c0-35.47,25.112-65.069,58.525-72.001  c-4.848-1.006-9.869-1.54-15.016-1.54c-40.616,0-73.541,32.925-73.541,73.541s32.925,73.54,73.541,73.54  c5.146,0,10.168-0.534,15.016-1.54C62.651,173.376,37.54,143.777,37.54,108.308z"/>
<circle style="fill:#029AE6;" cx="424.72" cy="409.925" r="73.538"/>
<path style="opacity:0.1;enable-background:new    ;" d="M381.208,409.928c0-35.469,25.112-65.069,58.524-72.001  c-4.848-1.006-9.869-1.539-15.016-1.539c-40.615,0-73.54,32.925-73.54,73.54s32.925,73.54,73.54,73.54  c5.146,0,10.168-0.533,15.016-1.539C406.32,474.997,381.208,445.397,381.208,409.928z"/>
<rect x="13.248" y="342.123" style="fill:#66BB6A;" width="135.604" height="135.604"/>
<rect x="13.248" y="342.123" style="opacity:0.1;enable-background:new    ;" width="40.042" height="135.604"/>
<rect x="368.307" y="51.898" transform="matrix(-0.7071 0.7071 -0.7071 -0.7071 801.6202 -115.4278)" style="fill:#FFD54F;" width="112.819" height="112.819"/>
<polygon style="opacity:0.1;enable-background:new    ;" points="374.974,108.308 439.733,43.548 424.717,28.533 344.942,108.308   424.717,188.083 439.733,173.067 "/>
<path d="M81.048,27.259c-17.38,0-33.961,5.433-47.947,15.712c-3.342,2.456-4.059,7.155-1.604,10.496  c2.455,3.342,7.154,4.059,10.495,1.604C53.384,46.7,66.888,42.275,81.048,42.275c36.411,0,66.033,29.621,66.033,66.032  s-29.622,66.032-66.033,66.032c-36.41,0-66.032-29.621-66.032-66.032c0-11.639,3.086-23.097,8.926-33.136  c2.084-3.585,0.869-8.181-2.715-10.265c-3.586-2.085-8.182-0.87-10.265,2.714C3.791,79.949,0,94.019,0,108.307  c0,44.69,36.358,81.048,81.048,81.048c44.691,0,81.049-36.359,81.049-81.048S125.738,27.259,81.048,27.259z"/>
<path d="M481.429,457.341c3.434,2.325,8.101,1.429,10.427-2.004c9.101-13.431,13.911-29.134,13.911-45.41  c0-44.69-36.358-81.048-81.049-81.048s-81.049,36.358-81.049,81.048s36.358,81.049,81.049,81.049c15.4,0,30.402-4.359,43.385-12.603  c3.501-2.223,4.536-6.862,2.313-10.363s-6.862-4.536-10.363-2.313c-10.573,6.714-22.791,10.263-35.335,10.263  c-36.411,0-66.033-29.622-66.033-66.033s29.622-66.032,66.033-66.032s66.033,29.622,66.033,66.032  c0,13.262-3.916,26.052-11.325,36.987C477.099,450.348,477.996,455.016,481.429,457.341z"/>
<path d="M148.848,372.518c4.147,0,7.508-3.362,7.508-7.508v-22.882c0-4.146-3.361-7.508-7.508-7.508h-135.6  c-4.147,0-7.508,3.362-7.508,7.508v135.6c0,4.146,3.361,7.508,7.508,7.508h135.6c4.147,0,7.508-3.362,7.508-7.508v-82.686  c0-4.146-3.361-7.508-7.508-7.508c-4.147,0-7.508,3.362-7.508,7.508v75.178H20.756V349.636H141.34v15.374  C141.34,369.157,144.701,372.518,148.848,372.518z"/>
<path d="M493.875,108.307l-69.157,69.157l-69.157-69.157l69.157-69.157l26.636,26.637c2.933,2.932,7.686,2.932,10.618,0  c2.932-2.932,2.932-7.685,0-10.617l-31.946-31.946c-2.933-2.932-7.686-2.932-10.618,0l-79.775,79.775  c-2.932,2.932-2.932,7.685,0,10.617l79.775,79.776c1.409,1.408,3.318,2.199,5.31,2.199s3.9-0.792,5.31-2.199l79.775-79.776  c2.932-2.932,2.932-7.685,0-10.617l-26.592-26.593c-2.932-2.932-7.685-2.932-10.618,0c-2.932,2.932-2.932,7.686,0,10.617  L493.875,108.307z"/>
<path d="M81.048,308.159c4.147,0,7.508-3.362,7.508-7.508V235.71c0,0,17.35,17.351,17.352,17.352c2.848,2.848,7.704,2.913,10.618,0  c2.932-2.932,2.932-7.685,0-10.617l-30.169-30.17c-0.014-0.014-0.03-0.026-0.045-0.04c-2.86-2.823-7.664-2.828-10.529,0  c-0.014,0.014-0.03,0.026-0.045,0.04l-30.17,30.17c-2.932,2.932-2.932,7.685,0,10.617c2.933,2.933,7.686,2.931,10.618,0  l17.352-17.352v64.941C73.54,304.798,76.901,308.159,81.048,308.159z"/>
<path d="M424.717,210.076c-4.147,0-7.508,3.361-7.508,7.508v64.941l-17.352-17.352c-2.932-2.931-7.685-2.932-10.618,0  c-2.932,2.932-2.932,7.686,0,10.617l30.17,30.17c0.014,0.014,0.03,0.026,0.045,0.04c2.836,2.786,7.698,2.782,10.529,0  c0.014-0.014,0.03-0.026,0.045-0.041l30.17-30.17c2.932-2.932,2.932-7.686,0-10.617c-2.933-2.932-7.686-2.932-10.618,0  l-17.352,17.352v-64.941C432.225,213.438,428.864,210.076,424.717,210.076z"/>
<path d="M254.189,143.787c2.866,2.866,7.719,2.899,10.618,0l30.17-30.17c0.012-0.012,0.022-0.025,0.033-0.037  c2.798-2.833,2.802-7.706,0-10.543c-0.012-0.012-0.022-0.025-0.033-0.037l-30.17-30.17c-2.933-2.932-7.686-2.932-10.618,0  c-2.932,2.932-2.932,7.685,0,10.617l17.353,17.352h-64.941c-4.147,0-7.508,3.362-7.508,7.508c0,4.146,3.361,7.508,7.508,7.508  h64.941l-17.353,17.353C251.256,136.101,251.256,140.855,254.189,143.787z"/>
<g>
</g>
<g>
</g>
<g>
</g>
<g>
</g>
<g>
</g>
<g>
</g>
<g>
</g>
<g>
</g>
<g>
</g>
<g>
</g>
<g>
</g>
<g>
</g>
<g>
</g>
<g>
</g>
<g>
</g>
</svg>
